<svg width="412" height="487" viewBox="0 0 412 487" fill="none" xmlns="http://www.w3.org/2000/svg">
<rect x="15" width="384" height="477" rx="15" fill="#FAFAF9"/>
<circle cx="71.9342" cy="55.9343" r="17.9342" fill="url(#paint0_linear_5_2420)"/>
<path d="M103.12 50H105.568V45.05H107.872L110.644 50H113.416L110.338 44.618C111.082 44.306 111.67 43.826 112.102 43.178C112.546 42.53 112.768 41.744 112.768 40.82C112.768 39.908 112.57 39.14 112.174 38.516C111.778 37.892 111.226 37.418 110.518 37.094C109.822 36.758 109.018 36.59 108.106 36.59H103.12V50ZM105.568 42.89V38.75H108.142C108.802 38.75 109.33 38.936 109.726 39.308C110.122 39.68 110.32 40.184 110.32 40.82C110.32 41.444 110.122 41.948 109.726 42.332C109.33 42.704 108.802 42.89 108.142 42.89H105.568ZM117.793 50.216C119.065 50.216 120.085 49.796 120.853 48.956V50H123.085V43.484C123.085 42.8 122.911 42.194 122.563 41.666C122.215 41.138 121.735 40.73 121.123 40.442C120.523 40.142 119.821 39.992 119.017 39.992C118.033 39.992 117.157 40.226 116.389 40.694C115.621 41.162 115.093 41.78 114.805 42.548L116.731 43.484C116.911 43.04 117.193 42.686 117.577 42.422C117.961 42.146 118.411 42.008 118.927 42.008C119.467 42.008 119.899 42.152 120.223 42.44C120.559 42.716 120.727 43.064 120.727 43.484V43.808L117.811 44.276C116.659 44.468 115.807 44.834 115.255 45.374C114.703 45.914 114.427 46.592 114.427 47.408C114.427 48.272 114.733 48.956 115.345 49.46C115.957 49.964 116.773 50.216 117.793 50.216ZM116.875 47.318C116.875 46.634 117.337 46.202 118.261 46.022L120.727 45.608V46.004C120.727 46.676 120.493 47.246 120.025 47.714C119.569 48.182 118.969 48.416 118.225 48.416C117.829 48.416 117.505 48.32 117.253 48.128C117.001 47.924 116.875 47.654 116.875 47.318ZM125.264 50H127.622V44.546C127.622 43.802 127.826 43.226 128.234 42.818C128.654 42.398 129.194 42.188 129.854 42.188H130.7V40.1H130.124C129.524 40.1 128.996 40.208 128.54 40.424C128.084 40.64 127.73 41.03 127.478 41.594V40.208H125.264V50ZM136.64 50.216C137.636 50.216 138.506 49.994 139.25 49.55C140.006 49.094 140.534 48.518 140.834 47.822L138.926 46.886C138.71 47.258 138.41 47.564 138.026 47.804C137.654 48.032 137.198 48.146 136.658 48.146C135.95 48.146 135.356 47.93 134.876 47.498C134.396 47.066 134.12 46.49 134.048 45.77H141.104C141.152 45.638 141.182 45.488 141.194 45.32C141.218 45.14 141.23 44.96 141.23 44.78C141.23 43.904 141.044 43.106 140.672 42.386C140.3 41.666 139.76 41.09 139.052 40.658C138.344 40.214 137.48 39.992 136.46 39.992C135.548 39.992 134.72 40.214 133.976 40.658C133.244 41.102 132.662 41.708 132.23 42.476C131.81 43.232 131.6 44.102 131.6 45.086C131.6 46.034 131.81 46.898 132.23 47.678C132.65 48.458 133.238 49.076 133.994 49.532C134.75 49.988 135.632 50.216 136.64 50.216ZM136.46 41.936C137.084 41.936 137.6 42.128 138.008 42.512C138.428 42.884 138.662 43.37 138.71 43.97H134.102C134.234 43.322 134.51 42.824 134.93 42.476C135.362 42.116 135.872 41.936 136.46 41.936ZM148.364 50.216C149.312 50.216 150.158 49.994 150.902 49.55C151.646 49.094 152.234 48.482 152.666 47.714C153.098 46.934 153.314 46.064 153.314 45.104C153.314 44.144 153.098 43.28 152.666 42.512C152.234 41.732 151.646 41.12 150.902 40.676C150.158 40.22 149.318 39.992 148.382 39.992C147.11 39.992 146.108 40.394 145.376 41.198V36.374H143.018V50H145.232V48.902C145.592 49.322 146.042 49.646 146.582 49.874C147.134 50.102 147.728 50.216 148.364 50.216ZM148.094 48.056C147.578 48.056 147.11 47.93 146.69 47.678C146.282 47.426 145.958 47.078 145.718 46.634C145.49 46.19 145.376 45.68 145.376 45.104C145.376 44.528 145.49 44.018 145.718 43.574C145.958 43.13 146.282 42.782 146.69 42.53C147.11 42.278 147.578 42.152 148.094 42.152C148.634 42.152 149.108 42.284 149.516 42.548C149.936 42.8 150.266 43.148 150.506 43.592C150.746 44.036 150.866 44.54 150.866 45.104C150.866 45.668 150.746 46.178 150.506 46.634C150.266 47.078 149.936 47.426 149.516 47.678C149.108 47.93 148.634 48.056 148.094 48.056ZM155.112 50H157.47V36.374H155.112V50ZM164.435 50.216C165.383 50.216 166.247 50 167.027 49.568C167.807 49.124 168.431 48.518 168.899 47.75C169.367 46.97 169.601 46.088 169.601 45.104C169.601 44.12 169.367 43.244 168.899 42.476C168.443 41.708 167.825 41.102 167.045 40.658C166.265 40.214 165.395 39.992 164.435 39.992C163.463 39.992 162.587 40.214 161.807 40.658C161.027 41.102 160.403 41.708 159.935 42.476C159.479 43.244 159.251 44.12 159.251 45.104C159.251 46.088 159.479 46.964 159.935 47.732C160.403 48.5 161.027 49.106 161.807 49.55C162.599 49.994 163.475 50.216 164.435 50.216ZM164.435 48.056C163.907 48.056 163.433 47.93 163.013 47.678C162.605 47.426 162.281 47.078 162.041 46.634C161.813 46.178 161.699 45.668 161.699 45.104C161.699 44.54 161.813 44.036 162.041 43.592C162.281 43.148 162.605 42.8 163.013 42.548C163.433 42.284 163.907 42.152 164.435 42.152C164.963 42.152 165.425 42.284 165.821 42.548C166.229 42.8 166.547 43.148 166.775 43.592C167.015 44.036 167.135 44.54 167.135 45.104C167.135 45.668 167.015 46.178 166.775 46.634C166.547 47.078 166.229 47.426 165.821 47.678C165.425 47.93 164.963 48.056 164.435 48.056ZM176.105 50.216C176.813 50.216 177.467 50.096 178.067 49.856C178.667 49.604 179.183 49.262 179.615 48.83C180.047 48.386 180.359 47.888 180.551 47.336L178.481 46.4C178.289 46.916 177.983 47.324 177.563 47.624C177.155 47.912 176.669 48.056 176.105 48.056C175.589 48.056 175.127 47.93 174.719 47.678C174.323 47.426 174.011 47.078 173.783 46.634C173.555 46.178 173.441 45.668 173.441 45.104C173.441 44.528 173.555 44.018 173.783 43.574C174.011 43.13 174.323 42.782 174.719 42.53C175.127 42.278 175.589 42.152 176.105 42.152C176.669 42.152 177.155 42.302 177.563 42.602C177.983 42.902 178.289 43.298 178.481 43.79L180.551 42.89C180.347 42.314 180.029 41.81 179.597 41.378C179.165 40.934 178.649 40.592 178.049 40.352C177.449 40.112 176.801 39.992 176.105 39.992C175.133 39.992 174.257 40.214 173.477 40.658C172.709 41.102 172.103 41.708 171.659 42.476C171.215 43.244 170.993 44.114 170.993 45.086C170.993 46.058 171.215 46.934 171.659 47.714C172.103 48.482 172.709 49.094 173.477 49.55C174.257 49.994 175.133 50.216 176.105 50.216ZM182.34 50H184.698V47.012L185.958 45.644L188.712 50H191.412L187.722 44.15L191.34 40.208H188.406L184.698 44.096V36.374H182.34V50ZM196.455 50.216C197.199 50.216 197.847 50.09 198.399 49.838C198.951 49.586 199.383 49.238 199.695 48.794C200.007 48.338 200.163 47.816 200.163 47.228C200.163 46.544 199.947 45.956 199.515 45.464C199.083 44.972 198.459 44.612 197.643 44.384L196.077 43.916C195.741 43.82 195.465 43.694 195.249 43.538C195.033 43.382 194.925 43.166 194.925 42.89C194.925 42.602 195.039 42.368 195.267 42.188C195.495 42.008 195.807 41.918 196.203 41.918C196.695 41.918 197.139 42.05 197.535 42.314C197.943 42.578 198.225 42.932 198.381 43.376L200.181 42.53C199.881 41.738 199.377 41.12 198.669 40.676C197.961 40.22 197.145 39.992 196.221 39.992C195.513 39.992 194.883 40.118 194.331 40.37C193.791 40.622 193.365 40.976 193.053 41.432C192.753 41.876 192.603 42.398 192.603 42.998C192.603 43.67 192.813 44.252 193.233 44.744C193.665 45.236 194.295 45.602 195.123 45.842L196.725 46.292C197.037 46.376 197.301 46.502 197.517 46.67C197.745 46.826 197.859 47.042 197.859 47.318C197.859 47.642 197.727 47.9 197.463 48.092C197.211 48.272 196.875 48.362 196.455 48.362C195.903 48.362 195.405 48.206 194.961 47.894C194.517 47.582 194.163 47.15 193.899 46.598L192.135 47.444C192.423 48.284 192.951 48.956 193.719 49.46C194.499 49.964 195.411 50.216 196.455 50.216Z" fill="#18181B"/>
<path d="M68.0605 61H70.0082V57.0626H71.9926L74.1031 61H76.2765L73.9508 56.7371C75.2161 56.2279 75.8828 55.1464 75.8828 53.6869C75.8828 51.6342 74.5598 50.2482 72.0924 50.2482H68.0605V61ZM70.0082 55.4456V51.8757H71.7931C73.2474 51.8757 73.8983 52.5424 73.8983 53.6869C73.8983 54.8314 73.2474 55.4456 71.8036 55.4456H70.0082Z" fill="white"/>
<path d="M104.415 71.4697H105.716L107.586 65.5368L109.456 71.4697H110.757L113.46 63.5933H111.97L110.07 69.3654L108.229 63.5933H106.943L105.102 69.3654L103.217 63.5933H101.712L104.415 71.4697ZM116.488 71.4697H117.788L119.659 65.5368L121.529 71.4697H122.83L125.533 63.5933H124.043L122.143 69.3654L120.302 63.5933H119.016L117.175 69.3654L115.29 63.5933H113.784L116.488 71.4697ZM128.561 71.4697H129.861L131.732 65.5368L133.602 71.4697H134.903L137.606 63.5933H136.116L134.216 69.3654L132.375 63.5933H131.089L129.248 69.3654L127.362 63.5933H125.857L128.561 71.4697ZM138.792 71.4697H140.209V69.7162H138.792V71.4697ZM142.874 71.4697H144.234V66.7789C144.234 66.1457 144.404 65.6586 144.745 65.3176C145.086 64.9669 145.534 64.7916 146.089 64.7916H146.776V63.5056H146.294C145.807 63.5056 145.388 63.5933 145.037 63.7686C144.687 63.9343 144.409 64.1875 144.204 64.5285V63.5933H142.874V71.4697ZM150.292 71.6451C150.867 71.6451 151.383 71.5379 151.841 71.3236C152.299 71.0995 152.669 70.8073 152.952 70.4468V71.4697H154.282V66.1213C154.282 65.5855 154.15 65.1179 153.887 64.7185C153.634 64.3093 153.278 63.9927 152.82 63.7686C152.362 63.5348 151.831 63.4179 151.227 63.4179C150.76 63.4179 150.312 63.5007 149.883 63.6663C149.454 63.832 149.079 64.0609 148.758 64.3532C148.436 64.6357 148.203 64.9572 148.056 65.3176L149.24 65.9314C149.406 65.5612 149.659 65.2592 150 65.0254C150.341 64.7916 150.74 64.6746 151.198 64.6746C151.715 64.6746 152.129 64.811 152.44 65.0838C152.762 65.3468 152.923 65.6927 152.923 66.1213V66.4867L150.234 66.9251C149.347 67.0712 148.695 67.3683 148.276 67.8165C147.866 68.2549 147.662 68.7858 147.662 69.4093C147.662 70.0717 147.905 70.6124 148.393 71.0313C148.889 71.4405 149.523 71.6451 150.292 71.6451ZM149.094 69.3654C149.094 69.0245 149.206 68.7371 149.43 68.5033C149.664 68.2695 150.034 68.1087 150.541 68.021L152.923 67.6265V68.1233C152.923 68.5617 152.82 68.9611 152.616 69.3216C152.411 69.6821 152.124 69.9695 151.754 70.1838C151.383 70.3884 150.95 70.4907 150.453 70.4907C150.063 70.4907 149.737 70.3835 149.474 70.1692C149.221 69.9548 149.094 69.6869 149.094 69.3654ZM156.389 71.4697H157.748V66.7789C157.748 66.1457 157.918 65.6586 158.259 65.3176C158.6 64.9669 159.048 64.7916 159.604 64.7916H160.29V63.5056H159.808C159.321 63.5056 158.902 63.5933 158.551 63.7686C158.201 63.9343 157.923 64.1875 157.719 64.5285V63.5933H156.389V71.4697ZM165.122 71.6451C165.93 71.6451 166.632 71.4551 167.226 71.0752C167.82 70.6952 168.239 70.2325 168.483 69.6869L167.343 69.1024C167.119 69.4823 166.827 69.7941 166.466 70.0376C166.106 70.2812 165.662 70.403 165.136 70.403C164.698 70.403 164.289 70.3056 163.909 70.1107C163.539 69.9061 163.232 69.6187 162.988 69.2485C162.754 68.8783 162.628 68.4399 162.608 67.9334H168.629C168.677 67.6703 168.702 67.4268 168.702 67.2027C168.702 66.55 168.556 65.9362 168.263 65.3615C167.971 64.7867 167.547 64.3191 166.992 63.9586C166.447 63.5982 165.784 63.4179 165.005 63.4179C164.274 63.4179 163.621 63.5933 163.047 63.944C162.472 64.2947 162.014 64.7818 161.673 65.4053C161.342 66.019 161.176 66.7205 161.176 67.5096C161.176 68.2987 161.347 69.005 161.688 69.6285C162.029 70.252 162.496 70.7439 163.09 71.1044C163.685 71.4649 164.362 71.6451 165.122 71.6451ZM165.005 64.6308C165.404 64.6308 165.769 64.7234 166.101 64.9085C166.432 65.0838 166.7 65.3322 166.904 65.6537C167.109 65.9752 167.216 66.3454 167.226 66.7643H162.637C162.735 66.1019 163.008 65.5807 163.456 65.2007C163.904 64.8208 164.42 64.6308 165.005 64.6308ZM174.551 71.6451C175.301 71.6451 175.968 71.4649 176.553 71.1044C177.147 70.7439 177.615 70.2568 177.956 69.6431C178.297 69.0196 178.467 68.3182 178.467 67.5388C178.467 66.7497 178.297 66.0483 177.956 65.4345C177.615 64.811 177.152 64.3191 176.567 63.9586C175.983 63.5982 175.316 63.4179 174.565 63.4179C173.981 63.4179 173.455 63.53 172.987 63.754C172.52 63.9683 172.135 64.2704 171.833 64.66V60.4076H170.474V71.4697H171.804V70.3299C172.106 70.7488 172.495 71.0752 172.973 71.309C173.46 71.533 173.986 71.6451 174.551 71.6451ZM174.449 70.3299C173.961 70.3299 173.518 70.2081 173.119 69.9646C172.719 69.721 172.403 69.3898 172.169 68.9709C171.945 68.5422 171.833 68.0649 171.833 67.5388C171.833 67.003 171.945 66.5256 172.169 66.1067C172.403 65.6878 172.719 65.3566 173.119 65.113C173.518 64.8597 173.961 64.7331 174.449 64.7331C174.945 64.7331 175.384 64.8549 175.764 65.0984C176.153 65.342 176.46 65.6781 176.684 66.1067C176.908 66.5256 177.02 67.003 177.02 67.5388C177.02 68.0649 176.908 68.5422 176.684 68.9709C176.46 69.3898 176.153 69.721 175.764 69.9646C175.384 70.2081 174.945 70.3299 174.449 70.3299ZM180.249 71.4697H181.608V60.4076H180.249V71.4697ZM187.458 71.6451C188.198 71.6451 188.875 71.4697 189.489 71.119C190.103 70.7683 190.59 70.2812 190.95 69.6577C191.321 69.0342 191.506 68.323 191.506 67.5242C191.506 66.7351 191.325 66.0337 190.965 65.4199C190.614 64.7964 190.132 64.3093 189.518 63.9586C188.905 63.5982 188.218 63.4179 187.458 63.4179C186.688 63.4179 185.997 63.5982 185.383 63.9586C184.769 64.3093 184.282 64.7964 183.921 65.4199C183.571 66.0337 183.395 66.7351 183.395 67.5242C183.395 68.3133 183.576 69.0196 183.936 69.6431C184.297 70.2666 184.784 70.7586 185.397 71.119C186.011 71.4697 186.698 71.6451 187.458 71.6451ZM187.458 70.3299C186.961 70.3299 186.513 70.2081 186.113 69.9646C185.724 69.721 185.412 69.3898 185.178 68.9709C184.944 68.5422 184.827 68.06 184.827 67.5242C184.827 66.9884 184.944 66.511 185.178 66.0921C185.412 65.6732 185.724 65.342 186.113 65.0984C186.513 64.8549 186.961 64.7331 187.458 64.7331C187.945 64.7331 188.383 64.8549 188.773 65.0984C189.172 65.342 189.484 65.6732 189.708 66.0921C189.942 66.511 190.059 66.9884 190.059 67.5242C190.059 68.06 189.942 68.5422 189.708 68.9709C189.484 69.3898 189.172 69.721 188.773 69.9646C188.383 70.2081 187.945 70.3299 187.458 70.3299ZM196.931 71.6451C197.448 71.6451 197.93 71.5525 198.378 71.3674C198.836 71.1823 199.231 70.929 199.562 70.6076C199.893 70.2861 200.141 69.9256 200.307 69.5262L199.094 68.9124C198.909 69.3411 198.627 69.6869 198.247 69.95C197.876 70.2033 197.438 70.3299 196.931 70.3299C196.454 70.3299 196.021 70.2081 195.631 69.9646C195.251 69.721 194.949 69.3898 194.725 68.9709C194.501 68.5422 194.389 68.0649 194.389 67.5388C194.389 66.9933 194.501 66.511 194.725 66.0921C194.949 65.6732 195.251 65.342 195.631 65.0984C196.021 64.8549 196.454 64.7331 196.931 64.7331C197.428 64.7331 197.867 64.8646 198.247 65.1277C198.627 65.3809 198.909 65.7122 199.094 66.1213L200.307 65.5368C200.141 65.1277 199.888 64.7623 199.547 64.4408C199.216 64.1194 198.826 63.8709 198.378 63.6956C197.93 63.5105 197.448 63.4179 196.931 63.4179C196.162 63.4179 195.475 63.5982 194.871 63.9586C194.277 64.3093 193.809 64.7964 193.468 65.4199C193.127 66.0337 192.957 66.7351 192.957 67.5242C192.957 68.3036 193.127 69.005 193.468 69.6285C193.809 70.252 194.277 70.7439 194.871 71.1044C195.475 71.4649 196.162 71.6451 196.931 71.6451ZM202.083 71.4697H203.442V69.1024L204.787 67.6849L207.402 71.4697H209.01L205.78 66.7643L208.805 63.5933H207.066L203.442 67.2904V60.4076H202.083V71.4697ZM213.052 71.6451C213.617 71.6451 214.114 71.5477 214.542 71.3528C214.971 71.158 215.307 70.8901 215.551 70.5491C215.794 70.1984 215.916 69.799 215.916 69.3508C215.916 68.8053 215.736 68.3377 215.375 67.948C215.015 67.5583 214.518 67.2709 213.885 67.0858L212.599 66.7059C212.443 66.6572 212.282 66.5987 212.117 66.5305C211.951 66.4526 211.81 66.3454 211.693 66.209C211.576 66.0629 211.518 65.8778 211.518 65.6537C211.518 65.342 211.634 65.0887 211.868 64.8938C212.112 64.699 212.428 64.6016 212.818 64.6016C213.247 64.6016 213.636 64.7234 213.987 64.9669C214.348 65.2007 214.616 65.5222 214.791 65.9314L215.902 65.4199C215.668 64.7867 215.273 64.2947 214.718 63.944C214.172 63.5933 213.554 63.4179 212.862 63.4179C212.346 63.4179 211.878 63.5153 211.459 63.7102C211.05 63.905 210.724 64.1778 210.48 64.5285C210.246 64.8695 210.129 65.2738 210.129 65.7414C210.129 66.248 210.29 66.6961 210.612 67.0858C210.943 67.4657 211.464 67.7531 212.175 67.948L213.359 68.2841C213.524 68.323 213.695 68.3864 213.87 68.474C214.055 68.552 214.211 68.664 214.338 68.8101C214.474 68.9465 214.542 69.1316 214.542 69.3654C214.542 69.6967 214.401 69.9646 214.119 70.1692C213.836 70.3737 213.481 70.476 213.052 70.476C212.575 70.476 212.141 70.3445 211.751 70.0815C211.362 69.8087 211.055 69.4336 210.831 68.9563L209.749 69.4823C209.993 70.1448 210.407 70.6709 210.992 71.0606C211.576 71.4502 212.263 71.6451 213.052 71.6451ZM218.25 71.4697H219.668V69.7162H218.25V71.4697ZM221.442 71.4697H223.108L225.022 68.6494L226.936 71.4697H228.573L225.84 67.5242L228.587 63.5933H226.936L225.022 66.399L223.093 63.5933H221.456L224.204 67.5242L221.442 71.4697ZM230.22 74.6846C230.737 74.6846 231.175 74.5823 231.536 74.3777C231.906 74.1731 232.217 73.8955 232.471 73.5448C232.734 73.2038 232.948 72.8239 233.114 72.405L236.665 63.5933H235.16L232.778 69.7454L230.381 63.5933H228.905L232.032 71.4843L231.799 72.0542C231.584 72.5414 231.355 72.8872 231.112 73.0918C230.878 73.2964 230.532 73.3987 230.074 73.3987C229.918 73.3987 229.758 73.384 229.592 73.3548C229.436 73.3353 229.305 73.3158 229.197 73.2964V74.5092C229.353 74.5774 229.519 74.6213 229.694 74.6408C229.87 74.67 230.045 74.6846 230.22 74.6846ZM237.099 71.4697H243.266V70.1692H238.984L243.237 64.7477V63.5933H237.333V64.8938H241.396L237.099 70.3153V71.4697Z" fill="#71717A"/>
<g filter="url(#filter0_f_5_2420)">
<rect x="70" y="264" width="272" height="153" fill="url(#paint1_linear_5_2420)"/>
</g>
<g filter="url(#filter1_d_5_2420)">
<rect x="50" y="201" width="314" height="238" rx="10" fill="white"/>
</g>
<path d="M74.394 229.156C75.0613 229.156 75.6463 229.035 76.149 228.792C76.6517 228.549 77.046 228.216 77.332 227.791C77.618 227.366 77.761 226.877 77.761 226.322C77.761 225.031 76.9897 224.138 75.447 223.644L73.666 223.085C73.3193 222.972 73.055 222.816 72.873 222.617C72.6997 222.409 72.613 222.171 72.613 221.902C72.613 221.547 72.7473 221.261 73.016 221.044C73.2933 220.819 73.6573 220.706 74.108 220.706C74.6107 220.706 75.0527 220.84 75.434 221.109C75.8153 221.369 76.1013 221.742 76.292 222.227L77.748 221.577C77.488 220.849 77.033 220.264 76.383 219.822C75.7417 219.38 74.9833 219.159 74.108 219.159C73.4753 219.159 72.912 219.28 72.418 219.523C71.9327 219.757 71.5513 220.086 71.274 220.511C71.0053 220.936 70.871 221.425 70.871 221.98C70.871 222.613 71.0617 223.163 71.443 223.631C71.8243 224.09 72.392 224.441 73.146 224.684L75.005 225.282C75.343 225.395 75.5943 225.542 75.759 225.724C75.9323 225.906 76.019 226.14 76.019 226.426C76.019 226.781 75.876 227.067 75.59 227.284C75.3127 227.501 74.9443 227.609 74.485 227.609C73.9303 227.609 73.432 227.453 72.99 227.141C72.548 226.82 72.21 226.383 71.976 225.828L70.507 226.465C70.6803 227.002 70.9533 227.475 71.326 227.882C71.7073 228.281 72.158 228.593 72.678 228.818C73.2067 229.043 73.7787 229.156 74.394 229.156ZM81.2915 229.156C82.2102 229.156 82.9468 228.853 83.5015 228.246V229H85.1135V224.294C85.1135 223.8 84.9878 223.362 84.7365 222.981C84.4852 222.6 84.1385 222.305 83.6965 222.097C83.2632 221.88 82.7562 221.772 82.1755 221.772C81.4648 221.772 80.8322 221.941 80.2775 222.279C79.7228 222.617 79.3415 223.063 79.1335 223.618L80.5245 224.294C80.6545 223.973 80.8582 223.718 81.1355 223.527C81.4128 223.328 81.7378 223.228 82.1105 223.228C82.5005 223.228 82.8125 223.332 83.0465 223.54C83.2892 223.739 83.4105 223.991 83.4105 224.294V224.528L81.3045 224.866C80.4725 225.005 79.8572 225.269 79.4585 225.659C79.0598 226.049 78.8605 226.539 78.8605 227.128C78.8605 227.752 79.0815 228.246 79.5235 228.61C79.9655 228.974 80.5548 229.156 81.2915 229.156ZM80.6285 227.063C80.6285 226.569 80.9622 226.257 81.6295 226.127L83.4105 225.828V226.114C83.4105 226.599 83.2415 227.011 82.9035 227.349C82.5742 227.687 82.1408 227.856 81.6035 227.856C81.3175 227.856 81.0835 227.787 80.9015 227.648C80.7195 227.501 80.6285 227.306 80.6285 227.063ZM86.6875 229H88.3905V219.159H86.6875V229ZM93.3169 229.156C94.0363 229.156 94.6646 228.996 95.2019 228.675C95.7479 228.346 96.1293 227.93 96.3459 227.427L94.9679 226.751C94.8119 227.02 94.5953 227.241 94.3179 227.414C94.0493 227.579 93.7199 227.661 93.3299 227.661C92.8186 227.661 92.3896 227.505 92.0429 227.193C91.6963 226.881 91.4969 226.465 91.4449 225.945H96.5409C96.5756 225.85 96.5973 225.741 96.6059 225.62C96.6233 225.49 96.6319 225.36 96.6319 225.23C96.6319 224.597 96.4976 224.021 96.2289 223.501C95.9603 222.981 95.5703 222.565 95.0589 222.253C94.5476 221.932 93.9236 221.772 93.1869 221.772C92.5283 221.772 91.9303 221.932 91.3929 222.253C90.8643 222.574 90.4439 223.011 90.1319 223.566C89.8286 224.112 89.6769 224.74 89.6769 225.451C89.6769 226.136 89.8286 226.76 90.1319 227.323C90.4353 227.886 90.8599 228.333 91.4059 228.662C91.9519 228.991 92.5889 229.156 93.3169 229.156ZM93.1869 223.176C93.6376 223.176 94.0103 223.315 94.3049 223.592C94.6083 223.861 94.7773 224.212 94.8119 224.645H91.4839C91.5793 224.177 91.7786 223.817 92.0819 223.566C92.3939 223.306 92.7623 223.176 93.1869 223.176ZM100.376 229H102.144V225.425H103.808L105.81 229H107.812L105.589 225.113C106.127 224.888 106.551 224.541 106.863 224.073C107.184 223.605 107.344 223.037 107.344 222.37C107.344 221.711 107.201 221.157 106.915 220.706C106.629 220.255 106.231 219.913 105.719 219.679C105.217 219.436 104.636 219.315 103.977 219.315H100.376V229ZM102.144 223.865V220.875H104.003C104.48 220.875 104.861 221.009 105.147 221.278C105.433 221.547 105.576 221.911 105.576 222.37C105.576 222.821 105.433 223.185 105.147 223.462C104.861 223.731 104.48 223.865 104.003 223.865H102.144ZM111.789 229.156C112.508 229.156 113.136 228.996 113.674 228.675C114.22 228.346 114.601 227.93 114.818 227.427L113.44 226.751C113.284 227.02 113.067 227.241 112.79 227.414C112.521 227.579 112.192 227.661 111.802 227.661C111.29 227.661 110.861 227.505 110.515 227.193C110.168 226.881 109.969 226.465 109.917 225.945H115.013C115.047 225.85 115.069 225.741 115.078 225.62C115.095 225.49 115.104 225.36 115.104 225.23C115.104 224.597 114.969 224.021 114.701 223.501C114.432 222.981 114.042 222.565 113.531 222.253C113.019 221.932 112.395 221.772 111.659 221.772C111 221.772 110.402 221.932 109.865 222.253C109.336 222.574 108.916 223.011 108.604 223.566C108.3 224.112 108.149 224.74 108.149 225.451C108.149 226.136 108.3 226.76 108.604 227.323C108.907 227.886 109.332 228.333 109.878 228.662C110.424 228.991 111.061 229.156 111.789 229.156ZM111.659 223.176C112.109 223.176 112.482 223.315 112.777 223.592C113.08 223.861 113.249 224.212 113.284 224.645H109.956C110.051 224.177 110.25 223.817 110.554 223.566C110.866 223.306 111.234 223.176 111.659 223.176ZM116.395 231.6H118.098V228.324C118.358 228.593 118.674 228.801 119.047 228.948C119.419 229.087 119.822 229.156 120.256 229.156C120.94 229.156 121.551 228.996 122.089 228.675C122.626 228.346 123.051 227.904 123.363 227.349C123.675 226.786 123.831 226.157 123.831 225.464C123.831 224.771 123.675 224.147 123.363 223.592C123.051 223.029 122.626 222.587 122.089 222.266C121.551 221.937 120.945 221.772 120.269 221.772C119.783 221.772 119.346 221.859 118.956 222.032C118.566 222.205 118.245 222.448 117.994 222.76V221.928H116.395V231.6ZM120.061 227.596C119.688 227.596 119.35 227.505 119.047 227.323C118.752 227.141 118.518 226.89 118.345 226.569C118.18 226.248 118.098 225.88 118.098 225.464C118.098 225.048 118.18 224.68 118.345 224.359C118.518 224.038 118.752 223.787 119.047 223.605C119.35 223.423 119.688 223.332 120.061 223.332C120.451 223.332 120.793 223.427 121.088 223.618C121.391 223.8 121.629 224.051 121.803 224.372C121.976 224.693 122.063 225.057 122.063 225.464C122.063 225.871 121.976 226.24 121.803 226.569C121.629 226.89 121.391 227.141 121.088 227.323C120.793 227.505 120.451 227.596 120.061 227.596ZM128.587 229.156C129.272 229.156 129.896 229 130.459 228.688C131.022 228.367 131.473 227.93 131.811 227.375C132.149 226.812 132.318 226.175 132.318 225.464C132.318 224.753 132.149 224.121 131.811 223.566C131.482 223.011 131.035 222.574 130.472 222.253C129.909 221.932 129.28 221.772 128.587 221.772C127.885 221.772 127.252 221.932 126.689 222.253C126.126 222.574 125.675 223.011 125.337 223.566C125.008 224.121 124.843 224.753 124.843 225.464C124.843 226.175 125.008 226.807 125.337 227.362C125.675 227.917 126.126 228.354 126.689 228.675C127.261 228.996 127.894 229.156 128.587 229.156ZM128.587 227.596C128.206 227.596 127.863 227.505 127.56 227.323C127.265 227.141 127.031 226.89 126.858 226.569C126.693 226.24 126.611 225.871 126.611 225.464C126.611 225.057 126.693 224.693 126.858 224.372C127.031 224.051 127.265 223.8 127.56 223.618C127.863 223.427 128.206 223.332 128.587 223.332C128.968 223.332 129.302 223.427 129.588 223.618C129.883 223.8 130.112 224.051 130.277 224.372C130.45 224.693 130.537 225.057 130.537 225.464C130.537 225.871 130.45 226.24 130.277 226.569C130.112 226.89 129.883 227.141 129.588 227.323C129.302 227.505 128.968 227.596 128.587 227.596ZM133.609 229H135.312V225.061C135.312 224.524 135.46 224.108 135.754 223.813C136.058 223.51 136.448 223.358 136.924 223.358H137.535V221.85H137.119C136.686 221.85 136.305 221.928 135.975 222.084C135.646 222.24 135.39 222.522 135.208 222.929V221.928H133.609V229ZM141.886 229.078C142.172 229.078 142.454 229.056 142.731 229.013V227.544C142.566 227.57 142.415 227.583 142.276 227.583C141.86 227.583 141.557 227.488 141.366 227.297C141.175 227.106 141.08 226.833 141.08 226.478V223.449H142.705V221.928H141.08V220.316H139.377V220.862C139.377 221.209 139.282 221.473 139.091 221.655C138.9 221.837 138.632 221.928 138.285 221.928H138.155V223.449H139.377V226.569C139.377 227.358 139.594 227.973 140.027 228.415C140.469 228.857 141.089 229.078 141.886 229.078Z" fill="#18181B"/>
<path d="M253.241 229H255.009V222.292L258.012 226.4H258.22L261.21 222.422V229H262.991V219.315H261.301L258.155 223.683L254.931 219.315H253.241V229ZM266.846 229.156C267.765 229.156 268.502 228.853 269.056 228.246V229H270.668V224.294C270.668 223.8 270.543 223.362 270.291 222.981C270.04 222.6 269.693 222.305 269.251 222.097C268.818 221.88 268.311 221.772 267.73 221.772C267.02 221.772 266.387 221.941 265.832 222.279C265.278 222.617 264.896 223.063 264.688 223.618L266.079 224.294C266.209 223.973 266.413 223.718 266.69 223.527C266.968 223.328 267.293 223.228 267.665 223.228C268.055 223.228 268.367 223.332 268.601 223.54C268.844 223.739 268.965 223.991 268.965 224.294V224.528L266.859 224.866C266.027 225.005 265.412 225.269 265.013 225.659C264.615 226.049 264.415 226.539 264.415 227.128C264.415 227.752 264.636 228.246 265.078 228.61C265.52 228.974 266.11 229.156 266.846 229.156ZM266.183 227.063C266.183 226.569 266.517 226.257 267.184 226.127L268.965 225.828V226.114C268.965 226.599 268.796 227.011 268.458 227.349C268.129 227.687 267.696 227.856 267.158 227.856C266.872 227.856 266.638 227.787 266.456 227.648C266.274 227.501 266.183 227.306 266.183 227.063ZM272.242 229H273.945V225.061C273.945 224.524 274.093 224.108 274.387 223.813C274.691 223.51 275.081 223.358 275.557 223.358H276.168V221.85H275.752C275.319 221.85 274.938 221.928 274.608 222.084C274.279 222.24 274.023 222.522 273.841 222.929V221.928H272.242V229ZM279.22 229H285.72V227.505H281.521L283.796 225.113C284.411 224.472 284.862 223.904 285.148 223.41C285.443 222.916 285.59 222.405 285.59 221.876C285.59 221.339 285.456 220.866 285.187 220.459C284.927 220.052 284.559 219.735 284.082 219.51C283.614 219.276 283.068 219.159 282.444 219.159C281.924 219.159 281.43 219.263 280.962 219.471C280.503 219.67 280.113 219.961 279.792 220.342C279.471 220.715 279.259 221.157 279.155 221.668L280.702 222.149C280.841 221.69 281.062 221.343 281.365 221.109C281.668 220.866 282.028 220.745 282.444 220.745C282.843 220.745 283.168 220.862 283.419 221.096C283.679 221.33 283.809 221.651 283.809 222.058C283.809 222.301 283.753 222.539 283.64 222.773C283.527 223.007 283.328 223.289 283.042 223.618C282.756 223.947 282.357 224.381 281.846 224.918L279.22 227.674V229ZM288.628 229H290.396V219.315H286.756V220.823H288.628V229ZM293.325 226.478H299.175V225.009H293.325V226.478ZM301.02 229H302.931L303.633 226.92H307.377L308.066 229H309.99L306.649 219.315H304.361L301.02 229ZM304.14 225.36L305.505 221.278L306.87 225.36H304.14ZM310.925 231.6H312.628V228.324C312.888 228.593 313.204 228.801 313.577 228.948C313.95 229.087 314.353 229.156 314.786 229.156C315.471 229.156 316.082 228.996 316.619 228.675C317.156 228.346 317.581 227.904 317.893 227.349C318.205 226.786 318.361 226.157 318.361 225.464C318.361 224.771 318.205 224.147 317.893 223.592C317.581 223.029 317.156 222.587 316.619 222.266C316.082 221.937 315.475 221.772 314.799 221.772C314.314 221.772 313.876 221.859 313.486 222.032C313.096 222.205 312.775 222.448 312.524 222.76V221.928H310.925V231.6ZM314.591 227.596C314.218 227.596 313.88 227.505 313.577 227.323C313.282 227.141 313.048 226.89 312.875 226.569C312.71 226.248 312.628 225.88 312.628 225.464C312.628 225.048 312.71 224.68 312.875 224.359C313.048 224.038 313.282 223.787 313.577 223.605C313.88 223.423 314.218 223.332 314.591 223.332C314.981 223.332 315.323 223.427 315.618 223.618C315.921 223.8 316.16 224.051 316.333 224.372C316.506 224.693 316.593 225.057 316.593 225.464C316.593 225.871 316.506 226.24 316.333 226.569C316.16 226.89 315.921 227.141 315.618 227.323C315.323 227.505 314.981 227.596 314.591 227.596ZM319.659 229H321.362V225.061C321.362 224.524 321.51 224.108 321.804 223.813C322.108 223.51 322.498 223.358 322.974 223.358H323.585V221.85H323.169C322.736 221.85 322.355 221.928 322.025 222.084C321.696 222.24 321.44 222.522 321.258 222.929V221.928H319.659V229ZM326.637 229H333.137V227.505H328.938L331.213 225.113C331.828 224.472 332.279 223.904 332.565 223.41C332.86 222.916 333.007 222.405 333.007 221.876C333.007 221.339 332.873 220.866 332.604 220.459C332.344 220.052 331.976 219.735 331.499 219.51C331.031 219.276 330.485 219.159 329.861 219.159C329.341 219.159 328.847 219.263 328.379 219.471C327.92 219.67 327.53 219.961 327.209 220.342C326.888 220.715 326.676 221.157 326.572 221.668L328.119 222.149C328.258 221.69 328.479 221.343 328.782 221.109C329.085 220.866 329.445 220.745 329.861 220.745C330.26 220.745 330.585 220.862 330.836 221.096C331.096 221.33 331.226 221.651 331.226 222.058C331.226 222.301 331.17 222.539 331.057 222.773C330.944 223.007 330.745 223.289 330.459 223.618C330.173 223.947 329.774 224.381 329.263 224.918L326.637 227.674V229ZM338.398 229.156C339.178 229.156 339.858 228.948 340.439 228.532C341.02 228.107 341.47 227.522 341.791 226.777C342.12 226.023 342.285 225.148 342.285 224.151C342.285 223.154 342.12 222.283 341.791 221.538C341.47 220.784 341.015 220.199 340.426 219.783C339.845 219.367 339.165 219.159 338.385 219.159C337.622 219.159 336.951 219.367 336.37 219.783C335.789 220.199 335.334 220.78 335.005 221.525C334.684 222.27 334.524 223.146 334.524 224.151C334.524 225.148 334.684 226.023 335.005 226.777C335.334 227.531 335.789 228.116 336.37 228.532C336.959 228.948 337.635 229.156 338.398 229.156ZM338.398 227.544C337.739 227.544 337.224 227.241 336.851 226.634C336.478 226.027 336.292 225.2 336.292 224.151C336.292 223.094 336.474 222.266 336.838 221.668C337.211 221.07 337.726 220.771 338.385 220.771C339.052 220.771 339.572 221.074 339.945 221.681C340.326 222.279 340.517 223.102 340.517 224.151C340.517 225.2 340.331 226.027 339.958 226.634C339.585 227.241 339.065 227.544 338.398 227.544Z" fill="#D4D4D8"/>
<path d="M72 306.5C72 304.015 74.0147 302 76.5 302C78.9853 302 81 304.015 81 306.5V418H72V306.5Z" fill="#E4E4E7"/>
<path d="M101 271.5C101 269.015 103.015 267 105.5 267C107.985 267 110 269.015 110 271.5V418H101V271.5Z" fill="#E4E4E7"/>
<path d="M130 325.5C130 323.015 132.015 321 134.5 321C136.985 321 139 323.015 139 325.5V418H130V325.5Z" fill="#E4E4E7"/>
<path d="M159 297.5C159 295.015 161.015 293 163.5 293C165.985 293 168 295.015 168 297.5V418H159V297.5Z" fill="#E4E4E7"/>
<path d="M188 281.5C188 279.015 190.015 277 192.5 277C194.985 277 197 279.015 197 281.5V418H188V281.5Z" fill="#E4E4E7"/>
<path d="M217 352.5C217 350.015 219.015 348 221.5 348C223.985 348 226 350.015 226 352.5V418H217V352.5Z" fill="#E4E4E7"/>
<path d="M246 306.5C246 304.015 248.015 302 250.5 302C252.985 302 255 304.015 255 306.5V418H246V306.5Z" fill="#E4E4E7"/>
<path d="M275 325.5C275 323.015 277.015 321 279.5 321C281.985 321 284 323.015 284 325.5V418H275V325.5Z" fill="#E4E4E7"/>
<path d="M304 290.5C304 288.015 306.015 286 308.5 286C310.985 286 313 288.015 313 290.5V418H304V290.5Z" fill="#E4E4E7"/>
<path d="M333 297.5C333 295.015 335.015 293 337.5 293C339.985 293 342 295.015 342 297.5V418H333V297.5Z" fill="#E4E4E7"/>
<g filter="url(#filter2_d_5_2420)">
<rect x="50" y="108" width="314" height="71" rx="10" fill="#18181B"/>
</g>
<path d="M73.406 159H75.187V154.697L78.437 149.315H76.422L74.29 152.916L72.158 149.315H70.143L73.406 154.71V159ZM81.627 159.156C82.3116 159.156 82.9356 159 83.499 158.688C84.0623 158.367 84.513 157.93 84.851 157.375C85.189 156.812 85.358 156.175 85.358 155.464C85.358 154.753 85.189 154.121 84.851 153.566C84.5216 153.011 84.0753 152.574 83.512 152.253C82.9486 151.932 82.3203 151.772 81.627 151.772C80.925 151.772 80.2923 151.932 79.729 152.253C79.1656 152.574 78.715 153.011 78.377 153.566C78.0476 154.121 77.883 154.753 77.883 155.464C77.883 156.175 78.0476 156.807 78.377 157.362C78.715 157.917 79.1656 158.354 79.729 158.675C80.301 158.996 80.9336 159.156 81.627 159.156ZM81.627 157.596C81.2456 157.596 80.9033 157.505 80.6 157.323C80.3053 157.141 80.0713 156.89 79.898 156.569C79.7333 156.24 79.651 155.871 79.651 155.464C79.651 155.057 79.7333 154.693 79.898 154.372C80.0713 154.051 80.3053 153.8 80.6 153.618C80.9033 153.427 81.2456 153.332 81.627 153.332C82.0083 153.332 82.342 153.427 82.628 153.618C82.9226 153.8 83.1523 154.051 83.317 154.372C83.4903 154.693 83.577 155.057 83.577 155.464C83.577 155.871 83.4903 156.24 83.317 156.569C83.1523 156.89 82.9226 157.141 82.628 157.323C82.342 157.505 82.0083 157.596 81.627 157.596ZM89.1714 159.156C89.6134 159.156 90.0034 159.074 90.3414 158.909C90.6881 158.736 90.9611 158.484 91.1604 158.155V159H92.7724V151.928H91.0694V156.075C91.0694 156.543 90.9351 156.916 90.6664 157.193C90.3978 157.462 90.0554 157.596 89.6394 157.596C89.2148 157.596 88.8681 157.462 88.5994 157.193C88.3394 156.924 88.2094 156.565 88.2094 156.114V151.928H86.5064V156.257C86.5064 157.124 86.7404 157.826 87.2084 158.363C87.6851 158.892 88.3394 159.156 89.1714 159.156ZM96.666 159H98.369V154.853C98.369 154.394 98.5034 154.025 98.772 153.748C99.0407 153.471 99.383 153.332 99.799 153.332C100.215 153.332 100.557 153.471 100.826 153.748C101.095 154.017 101.229 154.385 101.229 154.853V159H102.932V154.45C102.932 153.921 102.819 153.458 102.594 153.059C102.369 152.652 102.052 152.335 101.645 152.11C101.246 151.885 100.787 151.772 100.267 151.772C99.8597 151.772 99.4914 151.846 99.162 151.993C98.8327 152.132 98.5684 152.344 98.369 152.63V149.159H96.666V159ZM106.517 159.156C107.436 159.156 108.172 158.853 108.727 158.246V159H110.339V154.294C110.339 153.8 110.213 153.362 109.962 152.981C109.711 152.6 109.364 152.305 108.922 152.097C108.489 151.88 107.982 151.772 107.401 151.772C106.69 151.772 106.058 151.941 105.503 152.279C104.948 152.617 104.567 153.063 104.359 153.618L105.75 154.294C105.88 153.973 106.084 153.718 106.361 153.527C106.638 153.328 106.963 153.228 107.336 153.228C107.726 153.228 108.038 153.332 108.272 153.54C108.515 153.739 108.636 153.991 108.636 154.294V154.528L106.53 154.866C105.698 155.005 105.083 155.269 104.684 155.659C104.285 156.049 104.086 156.539 104.086 157.128C104.086 157.752 104.307 158.246 104.749 158.61C105.191 158.974 105.78 159.156 106.517 159.156ZM105.854 157.063C105.854 156.569 106.188 156.257 106.855 156.127L108.636 155.828V156.114C108.636 156.599 108.467 157.011 108.129 157.349C107.8 157.687 107.366 157.856 106.829 157.856C106.543 157.856 106.309 157.787 106.127 157.648C105.945 157.501 105.854 157.306 105.854 157.063ZM113.918 159H115.426L118.208 151.928H116.349L114.672 156.543L112.995 151.928H111.136L113.918 159ZM122.376 159.156C123.096 159.156 123.724 158.996 124.261 158.675C124.807 158.346 125.189 157.93 125.405 157.427L124.027 156.751C123.871 157.02 123.655 157.241 123.377 157.414C123.109 157.579 122.779 157.661 122.389 157.661C121.878 157.661 121.449 157.505 121.102 157.193C120.756 156.881 120.556 156.465 120.504 155.945H125.6C125.635 155.85 125.657 155.741 125.665 155.62C125.683 155.49 125.691 155.36 125.691 155.23C125.691 154.597 125.557 154.021 125.288 153.501C125.02 152.981 124.63 152.565 124.118 152.253C123.607 151.932 122.983 151.772 122.246 151.772C121.588 151.772 120.99 151.932 120.452 152.253C119.924 152.574 119.503 153.011 119.191 153.566C118.888 154.112 118.736 154.74 118.736 155.451C118.736 156.136 118.888 156.76 119.191 157.323C119.495 157.886 119.919 158.333 120.465 158.662C121.011 158.991 121.648 159.156 122.376 159.156ZM122.246 153.176C122.697 153.176 123.07 153.315 123.364 153.592C123.668 153.861 123.837 154.212 123.871 154.645H120.543C120.639 154.177 120.838 153.817 121.141 153.566C121.453 153.306 121.822 153.176 122.246 153.176ZM129.293 159H130.996V154.853C130.996 154.394 131.122 154.025 131.373 153.748C131.624 153.471 131.954 153.332 132.361 153.332C132.777 153.332 133.106 153.471 133.349 153.748C133.6 154.017 133.726 154.385 133.726 154.853V159H135.429V154.853C135.429 154.394 135.555 154.025 135.806 153.748C136.057 153.471 136.387 153.332 136.794 153.332C137.21 153.332 137.539 153.471 137.782 153.748C138.033 154.017 138.159 154.385 138.159 154.853V159H139.862V154.45C139.862 153.921 139.745 153.458 139.511 153.059C139.286 152.652 138.978 152.335 138.588 152.11C138.198 151.885 137.752 151.772 137.249 151.772C136.781 151.772 136.356 151.867 135.975 152.058C135.602 152.249 135.295 152.535 135.052 152.916C134.844 152.569 134.545 152.292 134.155 152.084C133.774 151.876 133.345 151.772 132.868 151.772C132.426 151.772 132.032 151.859 131.685 152.032C131.338 152.205 131.074 152.465 130.892 152.812V151.928H129.293V159ZM143.448 159.156C144.366 159.156 145.103 158.853 145.658 158.246V159H147.27V154.294C147.27 153.8 147.144 153.362 146.893 152.981C146.641 152.6 146.295 152.305 145.853 152.097C145.419 151.88 144.912 151.772 144.332 151.772C143.621 151.772 142.988 151.941 142.434 152.279C141.879 152.617 141.498 153.063 141.29 153.618L142.681 154.294C142.811 153.973 143.014 153.718 143.292 153.527C143.569 153.328 143.894 153.228 144.267 153.228C144.657 153.228 144.969 153.332 145.203 153.54C145.445 153.739 145.567 153.991 145.567 154.294V154.528L143.461 154.866C142.629 155.005 142.013 155.269 141.615 155.659C141.216 156.049 141.017 156.539 141.017 157.128C141.017 157.752 141.238 158.246 141.68 158.61C142.122 158.974 142.711 159.156 143.448 159.156ZM142.785 157.063C142.785 156.569 143.118 156.257 143.786 156.127L145.567 155.828V156.114C145.567 156.599 145.398 157.011 145.06 157.349C144.73 157.687 144.297 157.856 143.76 157.856C143.474 157.856 143.24 157.787 143.058 157.648C142.876 157.501 142.785 157.306 142.785 157.063ZM152.133 159.156C152.592 159.156 153.017 159.078 153.407 158.922C153.797 158.757 154.122 158.523 154.382 158.22V159H155.994V149.159H154.291V152.643C153.762 152.062 153.038 151.772 152.12 151.772C151.452 151.772 150.846 151.937 150.3 152.266C149.762 152.587 149.338 153.029 149.026 153.592C148.714 154.147 148.558 154.771 148.558 155.464C148.558 156.157 148.714 156.786 149.026 157.349C149.338 157.904 149.762 158.346 150.3 158.675C150.837 158.996 151.448 159.156 152.133 159.156ZM152.315 157.596C151.933 157.596 151.591 157.505 151.288 157.323C150.984 157.141 150.746 156.89 150.573 156.569C150.408 156.24 150.326 155.871 150.326 155.464C150.326 155.057 150.408 154.693 150.573 154.372C150.746 154.051 150.984 153.8 151.288 153.618C151.591 153.427 151.933 153.332 152.315 153.332C152.696 153.332 153.034 153.423 153.329 153.605C153.632 153.787 153.866 154.038 154.031 154.359C154.204 154.68 154.291 155.048 154.291 155.464C154.291 155.88 154.204 156.248 154.031 156.569C153.866 156.89 153.632 157.141 153.329 157.323C153.034 157.505 152.696 157.596 152.315 157.596ZM160.932 159.156C161.651 159.156 162.28 158.996 162.817 158.675C163.363 158.346 163.744 157.93 163.961 157.427L162.583 156.751C162.427 157.02 162.21 157.241 161.933 157.414C161.664 157.579 161.335 157.661 160.945 157.661C160.434 157.661 160.005 157.505 159.658 157.193C159.311 156.881 159.112 156.465 159.06 155.945H164.156C164.191 155.85 164.212 155.741 164.221 155.62C164.238 155.49 164.247 155.36 164.247 155.23C164.247 154.597 164.113 154.021 163.844 153.501C163.575 152.981 163.185 152.565 162.674 152.253C162.163 151.932 161.539 151.772 160.802 151.772C160.143 151.772 159.545 151.932 159.008 152.253C158.479 152.574 158.059 153.011 157.747 153.566C157.444 154.112 157.292 154.74 157.292 155.451C157.292 156.136 157.444 156.76 157.747 157.323C158.05 157.886 158.475 158.333 159.021 158.662C159.567 158.991 160.204 159.156 160.932 159.156ZM160.802 153.176C161.253 153.176 161.625 153.315 161.92 153.592C162.223 153.861 162.392 154.212 162.427 154.645H159.099C159.194 154.177 159.394 153.817 159.697 153.566C160.009 153.306 160.377 153.176 160.802 153.176ZM170.826 160.3H171.931V159.13C172.503 159.078 173.005 158.926 173.439 158.675C173.872 158.415 174.21 158.086 174.453 157.687C174.695 157.288 174.817 156.833 174.817 156.322C174.817 155.031 174.045 154.138 172.503 153.644L171.931 153.462V150.823C172.598 151.048 173.07 151.516 173.348 152.227L174.804 151.577C174.587 150.962 174.223 150.446 173.712 150.03C173.209 149.614 172.615 149.345 171.931 149.224V148.015H170.826V149.172C170.254 149.215 169.747 149.363 169.305 149.614C168.871 149.857 168.533 150.182 168.291 150.589C168.048 150.996 167.927 151.46 167.927 151.98C167.927 152.613 168.117 153.163 168.499 153.631C168.88 154.09 169.448 154.441 170.202 154.684L170.826 154.879V157.505C170.436 157.401 170.085 157.206 169.773 156.92C169.461 156.625 169.214 156.261 169.032 155.828L167.563 156.465C167.797 157.176 168.204 157.769 168.785 158.246C169.365 158.714 170.046 159.004 170.826 159.117V160.3ZM170.722 153.085C170.375 152.972 170.111 152.816 169.929 152.617C169.755 152.409 169.669 152.171 169.669 151.902C169.669 151.59 169.773 151.33 169.981 151.122C170.189 150.914 170.47 150.784 170.826 150.732V153.124L170.722 153.085ZM172.061 155.282C172.399 155.395 172.65 155.542 172.815 155.724C172.988 155.906 173.075 156.14 173.075 156.426C173.075 156.729 172.971 156.985 172.763 157.193C172.555 157.392 172.277 157.522 171.931 157.583V155.243L172.061 155.282ZM179.282 159.156C179.958 159.156 180.556 159.013 181.076 158.727C181.604 158.432 182.02 158.038 182.324 157.544C182.627 157.05 182.779 156.491 182.779 155.867C182.779 155.104 182.558 154.472 182.116 153.969C181.682 153.458 181.106 153.146 180.387 153.033L182.376 150.706V149.315H176.435V150.81H180.387L177.878 153.67L178.281 154.515C178.575 154.376 178.905 154.307 179.269 154.307C179.797 154.307 180.218 154.45 180.53 154.736C180.85 155.022 181.011 155.416 181.011 155.919C181.011 156.422 180.85 156.825 180.53 157.128C180.209 157.423 179.793 157.57 179.282 157.57C178.857 157.57 178.48 157.453 178.151 157.219C177.83 156.985 177.592 156.647 177.436 156.205L175.889 156.751C176.01 157.236 176.235 157.661 176.565 158.025C176.903 158.389 177.306 158.671 177.774 158.87C178.25 159.061 178.753 159.156 179.282 159.156ZM184.642 159H186.761L189.465 155.49C189.803 155.048 190.059 154.654 190.232 154.307C190.414 153.952 190.535 153.618 190.596 153.306C190.665 152.994 190.7 152.682 190.7 152.37C190.7 151.755 190.553 151.204 190.258 150.719C189.972 150.234 189.578 149.852 189.075 149.575C188.572 149.298 187.992 149.159 187.333 149.159C186.683 149.159 186.102 149.298 185.591 149.575C185.088 149.852 184.69 150.238 184.395 150.732C184.109 151.217 183.966 151.772 183.966 152.396C183.966 152.985 184.096 153.514 184.356 153.982C184.625 154.441 184.989 154.805 185.448 155.074C185.907 155.343 186.432 155.477 187.021 155.477C187.16 155.477 187.285 155.468 187.398 155.451L184.642 159ZM187.333 153.995C186.882 153.995 186.501 153.848 186.189 153.553C185.886 153.25 185.734 152.86 185.734 152.383C185.734 151.898 185.886 151.503 186.189 151.2C186.501 150.897 186.882 150.745 187.333 150.745C187.784 150.745 188.161 150.897 188.464 151.2C188.767 151.503 188.919 151.898 188.919 152.383C188.919 152.86 188.767 153.25 188.464 153.553C188.161 153.848 187.784 153.995 187.333 153.995ZM192.122 161.028C193.44 160.751 194.098 159.841 194.098 158.298V157.18H192.382V159H193.175C193.071 159.65 192.72 160.049 192.122 160.196V161.028ZM200.344 159H202.086V156.868H203.503V155.386H202.086V149.315H200.24L195.898 155.386V156.868H200.344V159ZM200.344 155.386H197.64L200.344 151.499V155.386ZM205.158 159H207.277L209.981 155.49C210.319 155.048 210.574 154.654 210.748 154.307C210.93 153.952 211.051 153.618 211.112 153.306C211.181 152.994 211.216 152.682 211.216 152.37C211.216 151.755 211.068 151.204 210.774 150.719C210.488 150.234 210.093 149.852 209.591 149.575C209.088 149.298 208.507 149.159 207.849 149.159C207.199 149.159 206.618 149.298 206.107 149.575C205.604 149.852 205.205 150.238 204.911 150.732C204.625 151.217 204.482 151.772 204.482 152.396C204.482 152.985 204.612 153.514 204.872 153.982C205.14 154.441 205.504 154.805 205.964 155.074C206.423 155.343 206.947 155.477 207.537 155.477C207.675 155.477 207.801 155.468 207.914 155.451L205.158 159ZM207.849 153.995C207.398 153.995 207.017 153.848 206.705 153.553C206.401 153.25 206.25 152.86 206.25 152.383C206.25 151.898 206.401 151.503 206.705 151.2C207.017 150.897 207.398 150.745 207.849 150.745C208.299 150.745 208.676 150.897 208.98 151.2C209.283 151.503 209.435 151.898 209.435 152.383C209.435 152.86 209.283 153.25 208.98 153.553C208.676 153.848 208.299 153.995 207.849 153.995ZM212.354 159H218.854V157.505H214.655L216.93 155.113C217.545 154.472 217.996 153.904 218.282 153.41C218.577 152.916 218.724 152.405 218.724 151.876C218.724 151.339 218.59 150.866 218.321 150.459C218.061 150.052 217.693 149.735 217.216 149.51C216.748 149.276 216.202 149.159 215.578 149.159C215.058 149.159 214.564 149.263 214.096 149.471C213.637 149.67 213.247 149.961 212.926 150.342C212.605 150.715 212.393 151.157 212.289 151.668L213.836 152.149C213.975 151.69 214.196 151.343 214.499 151.109C214.802 150.866 215.162 150.745 215.578 150.745C215.977 150.745 216.302 150.862 216.553 151.096C216.813 151.33 216.943 151.651 216.943 152.058C216.943 152.301 216.887 152.539 216.774 152.773C216.661 153.007 216.462 153.289 216.176 153.618C215.89 153.947 215.491 154.381 214.98 154.918L212.354 157.674V159ZM225.84 159.078C226.126 159.078 226.408 159.056 226.685 159.013V157.544C226.521 157.57 226.369 157.583 226.23 157.583C225.814 157.583 225.511 157.488 225.32 157.297C225.13 157.106 225.034 156.833 225.034 156.478V153.449H226.659V151.928H225.034V150.316H223.331V150.862C223.331 151.209 223.236 151.473 223.045 151.655C222.855 151.837 222.586 151.928 222.239 151.928H222.109V153.449H223.331V156.569C223.331 157.358 223.548 157.973 223.981 158.415C224.423 158.857 225.043 159.078 225.84 159.078ZM227.986 159H229.689V154.853C229.689 154.394 229.824 154.025 230.092 153.748C230.361 153.471 230.703 153.332 231.119 153.332C231.535 153.332 231.878 153.471 232.146 153.748C232.415 154.017 232.549 154.385 232.549 154.853V159H234.252V154.45C234.252 153.921 234.14 153.458 233.914 153.059C233.689 152.652 233.373 152.335 232.965 152.11C232.567 151.885 232.107 151.772 231.587 151.772C231.18 151.772 230.812 151.846 230.482 151.993C230.153 152.132 229.889 152.344 229.689 152.63V149.159H227.986V159ZM235.692 151.135H237.395V149.315H235.692V151.135ZM235.692 159H237.395V151.928H235.692V159ZM241.659 159.156C242.196 159.156 242.664 159.065 243.063 158.883C243.461 158.701 243.773 158.45 243.999 158.129C244.224 157.8 244.337 157.423 244.337 156.998C244.337 156.504 244.181 156.079 243.869 155.724C243.557 155.369 243.106 155.109 242.517 154.944L241.386 154.606C241.143 154.537 240.944 154.446 240.788 154.333C240.632 154.22 240.554 154.064 240.554 153.865C240.554 153.657 240.636 153.488 240.801 153.358C240.965 153.228 241.191 153.163 241.477 153.163C241.832 153.163 242.153 153.258 242.439 153.449C242.733 153.64 242.937 153.895 243.05 154.216L244.35 153.605C244.133 153.033 243.769 152.587 243.258 152.266C242.746 151.937 242.157 151.772 241.49 151.772C240.978 151.772 240.523 151.863 240.125 152.045C239.735 152.227 239.427 152.483 239.202 152.812C238.985 153.133 238.877 153.51 238.877 153.943C238.877 154.428 239.028 154.849 239.332 155.204C239.644 155.559 240.099 155.824 240.697 155.997L241.854 156.322C242.079 156.383 242.27 156.474 242.426 156.595C242.59 156.708 242.673 156.864 242.673 157.063C242.673 157.297 242.577 157.483 242.387 157.622C242.205 157.752 241.962 157.817 241.659 157.817C241.26 157.817 240.9 157.704 240.58 157.479C240.259 157.254 240.003 156.942 239.813 156.543L238.539 157.154C238.747 157.761 239.128 158.246 239.683 158.61C240.246 158.974 240.905 159.156 241.659 159.156ZM249.737 159H251.245L252.909 154.229L254.547 159H256.068L258.499 151.928H256.705L255.223 156.374L253.663 151.928H252.155L250.582 156.387L249.1 151.928H247.306L249.737 159ZM262.66 159.156C263.379 159.156 264.007 158.996 264.545 158.675C265.091 158.346 265.472 157.93 265.689 157.427L264.311 156.751C264.155 157.02 263.938 157.241 263.661 157.414C263.392 157.579 263.063 157.661 262.673 157.661C262.161 157.661 261.732 157.505 261.386 157.193C261.039 156.881 260.84 156.465 260.788 155.945H265.884C265.918 155.85 265.94 155.741 265.949 155.62C265.966 155.49 265.975 155.36 265.975 155.23C265.975 154.597 265.84 154.021 265.572 153.501C265.303 152.981 264.913 152.565 264.402 152.253C263.89 151.932 263.266 151.772 262.53 151.772C261.871 151.772 261.273 151.932 260.736 152.253C260.207 152.574 259.787 153.011 259.475 153.566C259.171 154.112 259.02 154.74 259.02 155.451C259.02 156.136 259.171 156.76 259.475 157.323C259.778 157.886 260.203 158.333 260.749 158.662C261.295 158.991 261.932 159.156 262.66 159.156ZM262.53 153.176C262.98 153.176 263.353 153.315 263.648 153.592C263.951 153.861 264.12 154.212 264.155 154.645H260.827C260.922 154.177 261.121 153.817 261.425 153.566C261.737 153.306 262.105 153.176 262.53 153.176ZM270.62 159.156C271.339 159.156 271.967 158.996 272.505 158.675C273.051 158.346 273.432 157.93 273.649 157.427L272.271 156.751C272.115 157.02 271.898 157.241 271.621 157.414C271.352 157.579 271.023 157.661 270.633 157.661C270.121 157.661 269.692 157.505 269.346 157.193C268.999 156.881 268.8 156.465 268.748 155.945H273.844C273.878 155.85 273.9 155.741 273.909 155.62C273.926 155.49 273.935 155.36 273.935 155.23C273.935 154.597 273.8 154.021 273.532 153.501C273.263 152.981 272.873 152.565 272.362 152.253C271.85 151.932 271.226 151.772 270.49 151.772C269.831 151.772 269.233 151.932 268.696 152.253C268.167 152.574 267.747 153.011 267.435 153.566C267.131 154.112 266.98 154.74 266.98 155.451C266.98 156.136 267.131 156.76 267.435 157.323C267.738 157.886 268.163 158.333 268.709 158.662C269.255 158.991 269.892 159.156 270.62 159.156ZM270.49 153.176C270.94 153.176 271.313 153.315 271.608 153.592C271.911 153.861 272.08 154.212 272.115 154.645H268.787C268.882 154.177 269.081 153.817 269.385 153.566C269.697 153.306 270.065 153.176 270.49 153.176ZM275.226 159H276.929V156.842L277.839 155.854L279.828 159H281.778L279.113 154.775L281.726 151.928H279.607L276.929 154.736V149.159H275.226V159ZM283.6 156.062H285.095L285.212 149.315H283.483L283.6 156.062ZM283.483 159H285.212V157.18H283.483V159Z" fill="white"/>
<path d="M71.079 137H72.353V127.315H71.079V137ZM74.3637 137H75.5727V132.853C75.5727 132.281 75.7331 131.83 76.0537 131.501C76.3744 131.172 76.7817 131.007 77.2757 131.007C77.7697 131.007 78.1727 131.172 78.4847 131.501C78.7967 131.822 78.9527 132.272 78.9527 132.853V137H80.1747V132.463C80.1747 131.96 80.0577 131.514 79.8237 131.124C79.5984 130.725 79.2864 130.413 78.8877 130.188C78.4977 129.954 78.0514 129.837 77.5487 129.837C77.1154 129.837 76.7254 129.928 76.3787 130.11C76.0321 130.283 75.7547 130.53 75.5467 130.851V129.993H74.3637V137ZM84.4138 137.156C84.9164 137.156 85.3584 137.069 85.7398 136.896C86.1211 136.723 86.4201 136.484 86.6368 136.181C86.8534 135.869 86.9618 135.514 86.9618 135.115C86.9618 134.63 86.8014 134.214 86.4808 133.867C86.1601 133.52 85.7181 133.265 85.1548 133.1L84.0108 132.762C83.8721 132.719 83.7291 132.667 83.5818 132.606C83.4344 132.537 83.3088 132.441 83.2048 132.32C83.1008 132.19 83.0488 132.025 83.0488 131.826C83.0488 131.549 83.1528 131.323 83.3608 131.15C83.5774 130.977 83.8591 130.89 84.2058 130.89C84.5871 130.89 84.9338 130.998 85.2458 131.215C85.5664 131.423 85.8048 131.709 85.9608 132.073L86.9488 131.618C86.7408 131.055 86.3898 130.617 85.8958 130.305C85.4104 129.993 84.8601 129.837 84.2448 129.837C83.7854 129.837 83.3694 129.924 82.9968 130.097C82.6328 130.27 82.3424 130.513 82.1258 130.825C81.9178 131.128 81.8138 131.488 81.8138 131.904C81.8138 132.355 81.9568 132.753 82.2428 133.1C82.5374 133.438 83.0011 133.694 83.6338 133.867L84.6868 134.166C84.8341 134.201 84.9858 134.257 85.1418 134.335C85.3064 134.404 85.4451 134.504 85.5578 134.634C85.6791 134.755 85.7398 134.92 85.7398 135.128C85.7398 135.423 85.6141 135.661 85.3628 135.843C85.1114 136.025 84.7951 136.116 84.4138 136.116C83.9891 136.116 83.6034 135.999 83.2568 135.765C82.9101 135.522 82.6371 135.189 82.4378 134.764L81.4758 135.232C81.6924 135.821 82.0608 136.289 82.5808 136.636C83.1008 136.983 83.7118 137.156 84.4138 137.156ZM88.5444 128.875H89.7534V127.315H88.5444V128.875ZM88.5444 137H89.7534V129.993H88.5444V137ZM94.9704 139.86C95.6204 139.86 96.1967 139.721 96.6994 139.444C97.2107 139.175 97.6094 138.803 97.8954 138.326C98.1814 137.849 98.3244 137.308 98.3244 136.701V129.993H97.1414V130.968C96.864 130.613 96.5217 130.335 96.1144 130.136C95.707 129.937 95.2564 129.837 94.7624 129.837C94.1037 129.837 93.5144 129.993 92.9944 130.305C92.483 130.608 92.08 131.024 91.7854 131.553C91.4907 132.082 91.3434 132.675 91.3434 133.334C91.3434 133.993 91.4907 134.586 91.7854 135.115C92.0887 135.644 92.496 136.064 93.0074 136.376C93.5274 136.679 94.1167 136.831 94.7754 136.831C95.252 136.831 95.694 136.736 96.1014 136.545C96.5087 136.354 96.8424 136.081 97.1024 135.726V136.701C97.1024 137.126 97.0027 137.485 96.8034 137.78C96.6127 138.083 96.357 138.309 96.0364 138.456C95.7157 138.612 95.356 138.69 94.9574 138.69C94.4374 138.69 94.004 138.573 93.6574 138.339C93.3194 138.114 93.0897 137.836 92.9684 137.507L91.8374 138.027C92.0714 138.573 92.4657 139.015 93.0204 139.353C93.575 139.691 94.225 139.86 94.9704 139.86ZM94.8794 135.661C94.446 135.661 94.056 135.557 93.7094 135.349C93.3714 135.141 93.1027 134.864 92.9034 134.517C92.7127 134.162 92.6174 133.767 92.6174 133.334C92.6174 132.901 92.717 132.511 92.9164 132.164C93.1157 131.809 93.3844 131.527 93.7224 131.319C94.069 131.111 94.4547 131.007 94.8794 131.007C95.2954 131.007 95.6724 131.111 96.0104 131.319C96.3484 131.527 96.6127 131.809 96.8034 132.164C97.0027 132.511 97.1024 132.901 97.1024 133.334C97.1024 133.759 97.0027 134.149 96.8034 134.504C96.6127 134.859 96.3484 135.141 96.0104 135.349C95.6724 135.557 95.2954 135.661 94.8794 135.661ZM100.199 137H101.408V132.853C101.408 132.281 101.568 131.83 101.889 131.501C102.218 131.172 102.625 131.007 103.111 131.007C103.596 131.007 103.995 131.172 104.307 131.501C104.627 131.822 104.788 132.272 104.788 132.853V137H106.01V132.463C106.01 131.96 105.893 131.514 105.659 131.124C105.433 130.725 105.121 130.413 104.723 130.188C104.333 129.954 103.886 129.837 103.384 129.837C102.959 129.837 102.573 129.924 102.227 130.097C101.889 130.262 101.616 130.5 101.408 130.812V127.159H100.199V137ZM110.587 137.078C110.682 137.078 110.799 137.074 110.938 137.065C111.076 137.056 111.202 137.039 111.315 137.013V135.934C111.237 135.943 111.154 135.951 111.068 135.96C110.981 135.969 110.903 135.973 110.834 135.973C110.409 135.973 110.106 135.869 109.924 135.661C109.75 135.444 109.664 135.158 109.664 134.803V131.15H111.237V129.993H109.664V128.381H108.455V128.953C108.455 129.274 108.364 129.529 108.182 129.72C108 129.902 107.753 129.993 107.441 129.993H107.181V131.15H108.455V134.842C108.455 135.553 108.637 136.103 109.001 136.493C109.373 136.883 109.902 137.078 110.587 137.078Z" fill="#A1A1AA"/>
<defs>
<filter id="filter0_f_5_2420" x="0" y="194" width="412" height="293" filterUnits="userSpaceOnUse" color-interpolation-filters="sRGB">
<feFlood flood-opacity="0" result="BackgroundImageFix"/>
<feBlend mode="normal" in="SourceGraphic" in2="BackgroundImageFix" result="shape"/>
<feGaussianBlur stdDeviation="35" result="effect1_foregroundBlur_5_2420"/>
</filter>
<filter id="filter1_d_5_2420" x="46" y="201" width="322" height="246" filterUnits="userSpaceOnUse" color-interpolation-filters="sRGB">
<feFlood flood-opacity="0" result="BackgroundImageFix"/>
<feColorMatrix in="SourceAlpha" type="matrix" values="0 0 0 0 0 0 0 0 0 0 0 0 0 0 0 0 0 0 127 0" result="hardAlpha"/>
<feOffset dy="4"/>
<feGaussianBlur stdDeviation="2"/>
<feComposite in2="hardAlpha" operator="out"/>
<feColorMatrix type="matrix" values="0 0 0 0 0.1375 0 0 0 0 0.155242 0 0 0 0 0.4125 0 0 0 0.08 0"/>
<feBlend mode="normal" in2="BackgroundImageFix" result="effect1_dropShadow_5_2420"/>
<feBlend mode="normal" in="SourceGraphic" in2="effect1_dropShadow_5_2420" result="shape"/>
</filter>
<filter id="filter2_d_5_2420" x="46" y="108" width="322" height="79" filterUnits="userSpaceOnUse" color-interpolation-filters="sRGB">
<feFlood flood-opacity="0" result="BackgroundImageFix"/>
<feColorMatrix in="SourceAlpha" type="matrix" values="0 0 0 0 0 0 0 0 0 0 0 0 0 0 0 0 0 0 127 0" result="hardAlpha"/>
<feOffset dy="4"/>
<feGaussianBlur stdDeviation="2"/>
<feComposite in2="hardAlpha" operator="out"/>
<feColorMatrix type="matrix" values="0 0 0 0 0.1375 0 0 0 0 0.155242 0 0 0 0 0.4125 0 0 0 0.08 0"/>
<feBlend mode="normal" in2="BackgroundImageFix" result="effect1_dropShadow_5_2420"/>
<feBlend mode="normal" in="SourceGraphic" in2="effect1_dropShadow_5_2420" result="shape"/>
</filter>
<linearGradient id="paint0_linear_5_2420" x1="54" y1="38" x2="96.6562" y2="50.2709" gradientUnits="userSpaceOnUse">
<stop stop-color="#2563EB"/>
<stop offset="1" stop-color="#5F4ADF"/>
</linearGradient>
<linearGradient id="paint1_linear_5_2420" x1="68.5104" y1="340.5" x2="340.212" y2="340.5" gradientUnits="userSpaceOnUse">
<stop stop-color="#44FF9A"/>
<stop offset="0.234375" stop-color="#44B0FF"/>
<stop offset="0.489583" stop-color="#8B44FF"/>
<stop offset="0.739583" stop-color="#FF6644"/>
<stop offset="1" stop-color="#EBFF70"/>
</linearGradient>
</defs>
</svg>
